# xmcd CD database file
#
# Track frame offsets:
#	150
#	12888
#	24162
#	37661
#	50926
#	63092
#	76566
#	88825
#	102612
#	115599
#	129317
#	143705
#	156032
#	169551
#	181020
#	192714
#	205761
#	220007
#	231658
#	245876
#
# Disc length: 3451 seconds
#
# Revision: 4
# Processed by: cddbd v1.5.2PL0 Copyright (c) Steve Scherf et al.
# Submitted via: CDex 1.70beta2
#
DISCID=060d7914
DTITLE=Oldies But Goldies - Oldies But Goldies - Blues Favourites CD-10_10
DYEAR=2005
DGENRE=Oldies
TTITLE0=Amos Milburn - Chicken Shack Boogie  1947
TTITLE1=Joe Lutcher - No-Name Boogie  1947
TTITLE2=Annisteen Allen - Give It Up  19446
TTITLE3=Roy Brown - IÂ've Got The Last Laugh Now  1951
TTITLE4=Johnny Otis - Cool And Easy  1950
TTITLE5=Roy Milton - R. M. Blues  1945
TTITLE6=Elmore James - Dust My Broom  1951
TTITLE7=Chris Powell - Talking  1951
TTITLE8=Lloyd Glenn - Stranger  1947
TTITLE9=Terry Timmons - Worried Woman  1950
TTITLE10=King Perry - King Perry Blues  1945
TTITLE11=Joe Morris - Broken Hearted Blues  1949
TTITLE12=Big Mama Thornton - Walking Blues  1952
TTITLE13=Jimmy Rushing - FoolÂ's Blues  1950
TTITLE14=Mabel Scott - Subway Blues  1950
TTITLE15=Jimmy Mc Cracklin - JimmyÂ's Blues  1948
TTITLE16=Big Maybelle - MaybelleÂ's Blues  1953
TTITLE17=Fats Domino - Pleas DonÂ't Leave Me  1953
TTITLE18=HowlinÂ' Wolf - Worried All The Time  1952
TTITLE19=Joe Lutcher - Sunday Blues  1947
EXTD=YEAR: 2005
EXTT0=
EXTT1=
EXTT2=
EXTT3=
EXTT4=
EXTT5=
EXTT6=
EXTT7=
EXTT8=
EXTT9=
EXTT10=
EXTT11=
EXTT12=
EXTT13=
EXTT14=
EXTT15=
EXTT16=
EXTT17=
EXTT18=
EXTT19=
PLAYORDER=
